<svg id="visual" viewBox="0 0 900 600" width="900" height="600" xmlns="http://www.w3.org/2000/svg" xmlns:xlink="http://www.w3.org/1999/xlink" version="1.1"><rect x="0" y="0" width="900" height="600" fill="#f7f7f7"></rect><path d="M0 549L16.7 551.8C33.3 554.7 66.7 560.3 100 560.3C133.3 560.3 166.7 554.7 200 552.8C233.3 551 266.7 553 300 554C333.3 555 366.7 555 400 555.5C433.3 556 466.7 557 500 557.8C533.3 558.7 566.7 559.3 600 560.8C633.3 562.3 666.7 564.7 700 564C733.3 563.3 766.7 559.7 800 557.5C833.3 555.3 866.7 554.7 883.3 554.3L900 554L900 601L883.3 601C866.7 601 833.3 601 800 601C766.7 601 733.3 601 700 601C666.7 601 633.3 601 600 601C566.7 601 533.3 601 500 601C466.7 601 433.3 601 400 601C366.7 601 333.3 601 300 601C266.7 601 233.3 601 200 601C166.7 601 133.3 601 100 601C66.7 601 33.3 601 16.7 601L0 601Z" fill="#2997ff"></path><path d="M0 564L16.7 565.8C33.3 567.7 66.7 571.3 100 572.7C133.3 574 166.7 573 200 572.7C233.3 572.3 266.7 572.7 300 572.5C333.3 572.3 366.7 571.7 400 571C433.3 570.3 466.7 569.7 500 570.3C533.3 571 566.7 573 600 571.3C633.3 569.7 666.7 564.3 700 562.5C733.3 560.7 766.7 562.3 800 564C833.3 565.7 866.7 567.3 883.3 568.2L900 569L900 601L883.3 601C866.7 601 833.3 601 800 601C766.7 601 733.3 601 700 601C666.7 601 633.3 601 600 601C566.7 601 533.3 601 500 601C466.7 601 433.3 601 400 601C366.7 601 333.3 601 300 601C266.7 601 233.3 601 200 601C166.7 601 133.3 601 100 601C66.7 601 33.3 601 16.7 601L0 601Z" fill="#359dff"></path><path d="M0 581L16.7 580.8C33.3 580.7 66.7 580.3 100 579.3C133.3 578.3 166.7 576.7 200 574.8C233.3 573 266.7 571 300 571.7C333.3 572.3 366.7 575.7 400 577.3C433.3 579 466.7 579 500 578.5C533.3 578 566.7 577 600 575.3C633.3 573.7 666.7 571.3 700 571.5C733.3 571.7 766.7 574.3 800 574C833.3 573.7 866.7 570.3 883.3 568.7L900 567L900 601L883.3 601C866.7 601 833.3 601 800 601C766.7 601 733.3 601 700 601C666.7 601 633.3 601 600 601C566.7 601 533.3 601 500 601C466.7 601 433.3 601 400 601C366.7 601 333.3 601 300 601C266.7 601 233.3 601 200 601C166.7 601 133.3 601 100 601C66.7 601 33.3 601 16.7 601L0 601Z" fill="#40a2ff"></path><path d="M0 580L16.7 579.7C33.3 579.3 66.7 578.7 100 577.8C133.3 577 166.7 576 200 576.3C233.3 576.7 266.7 578.3 300 578.7C333.3 579 366.7 578 400 577.3C433.3 576.7 466.7 576.3 500 577.5C533.3 578.7 566.7 581.3 600 582.7C633.3 584 666.7 584 700 582.8C733.3 581.7 766.7 579.3 800 578C833.3 576.7 866.7 576.3 883.3 576.2L900 576L900 601L883.3 601C866.7 601 833.3 601 800 601C766.7 601 733.3 601 700 601C666.7 601 633.3 601 600 601C566.7 601 533.3 601 500 601C466.7 601 433.3 601 400 601C366.7 601 333.3 601 300 601C266.7 601 233.3 601 200 601C166.7 601 133.3 601 100 601C66.7 601 33.3 601 16.7 601L0 601Z" fill="#4ba8ff"></path><path d="M0 588L16.7 587.5C33.3 587 66.7 586 100 585.5C133.3 585 166.7 585 200 586.5C233.3 588 266.7 591 300 592C333.3 593 366.7 592 400 591C433.3 590 466.7 589 500 588.8C533.3 588.7 566.7 589.3 600 588.8C633.3 588.3 666.7 586.7 700 586.2C733.3 585.7 766.7 586.3 800 587.7C833.3 589 866.7 591 883.3 592L900 593L900 601L883.3 601C866.7 601 833.3 601 800 601C766.7 601 733.3 601 700 601C666.7 601 633.3 601 600 601C566.7 601 533.3 601 500 601C466.7 601 433.3 601 400 601C366.7 601 333.3 601 300 601C266.7 601 233.3 601 200 601C166.7 601 133.3 601 100 601C66.7 601 33.3 601 16.7 601L0 601Z" fill="#55adff"></path></svg>